<svg width="65" height="62" viewBox="0 0 65 62" fill="none" xmlns="http://www.w3.org/2000/svg">
<path d="M65 62H0V56.8333H65V62ZM29.7917 12.9167H21.6667L32.5 23.25L43.3333 12.9167H35.2083V0H29.7917V12.9167ZM34.6585 33.7487C41.1044 34.7407 46.0417 40.0804 46.0417 46.5C46.0417 48.3393 45.6219 50.0805 44.8933 51.6667H50.6594C51.174 50.0288 51.4583 48.2954 51.4583 46.5C51.4583 36.5283 42.9515 28.4167 32.4919 28.4167C31.0131 28.4167 29.4992 28.5794 27.9608 28.9204C32.2156 40.4731 26.7475 48.2593 13.5417 46.4354C13.5362 48.2618 13.8233 50.0133 14.3379 51.6667C29.3637 52.8137 35.7825 44.1233 34.6585 33.7487Z" fill="#676DF4"/>
</svg>
