<svg width="75" height="58" viewBox="0 0 75 58" fill="none" xmlns="http://www.w3.org/2000/svg">
<path d="M75 58H0V53.1667H75V58ZM34.375 21.75H40.625V9.66667H50L37.5 0L25 9.66667H34.375V21.75ZM39.9906 31.5713C47.4281 32.4993 53.125 37.4946 53.125 43.5C53.125 45.2207 52.6406 46.8495 51.8 48.3333H58.4531C59.0469 46.8012 59.375 45.1796 59.375 43.5C59.375 34.1717 49.5594 26.5833 37.4906 26.5833C35.7844 26.5833 34.0375 26.7356 32.2625 27.0546C37.1719 37.8619 30.8625 45.1458 15.625 43.4396C15.6187 45.1482 15.95 46.7867 16.5438 48.3333C33.8812 49.4063 41.2875 41.2767 39.9906 31.5713Z" fill="#676DF4"/>
</svg>
