<svg width="62" height="66" viewBox="0 0 62 66" fill="none" xmlns="http://www.w3.org/2000/svg">
<path d="M10.5116 46.75C10.4057 47.652 10.3333 48.5677 10.3333 49.5C10.3333 50.4322 10.4057 51.348 10.5116 52.25H0V46.75H10.5116ZM28.4167 27.5H33.5833V13.75H41.3333L31 2.75L20.6667 13.75H28.4167V27.5ZM18.3494 32.142L10.9094 24.2192L7.254 28.1077L14.6966 36.0305C15.7583 34.5757 16.9828 33.2722 18.3494 32.142ZM51.4884 46.75C51.5943 47.652 51.6667 48.5677 51.6667 49.5C51.6667 50.4322 51.5943 51.348 51.4884 52.25H62V46.75H51.4884ZM46.5 49.5C46.5 50.4377 46.4096 51.3535 46.2675 52.25H15.7325C15.5904 51.3535 15.5 50.4377 15.5 49.5C15.5 40.3865 22.4388 33 31 33C39.5612 33 46.5 40.3865 46.5 49.5ZM40.9665 46.75C39.8092 42.02 35.7972 38.5 31 38.5C26.2002 38.5 22.1908 42.02 21.0361 46.75H40.9665ZM51.0932 24.2192L43.6506 32.142C45.0146 33.2722 46.2417 34.5785 47.3034 36.0305L54.746 28.1077L51.0932 24.2192ZM62 57.75H0V63.25H62V57.75Z" fill="#676DF4"/>
</svg>
