<svg width="62" height="60" viewBox="0 0 62 60" fill="none" xmlns="http://www.w3.org/2000/svg">
<path d="M10.5116 43.0705C10.4057 43.9534 10.3333 44.8498 10.3333 45.7624C10.3333 46.675 10.4057 47.5714 10.5116 48.4543H0V43.0705H10.5116ZM33.5833 0H28.4167V13.4595H20.6667L31 24.2272L41.3333 13.4595H33.5833V0ZM18.3494 28.7711L10.9094 21.0157L7.254 24.8221L14.6966 32.5774C15.7583 31.1534 16.9828 29.8775 18.3494 28.7711ZM51.4884 43.0705C51.5943 43.9534 51.6667 44.8498 51.6667 45.7624C51.6667 46.675 51.5943 47.5714 51.4884 48.4543H62V43.0705H51.4884ZM46.5 45.7624C46.5 46.6803 46.4096 47.5767 46.2675 48.4543H15.7325C15.5904 47.5767 15.5 46.6803 15.5 45.7624C15.5 36.8414 22.4362 29.611 31 29.611C39.5612 29.611 46.5 36.8414 46.5 45.7624ZM40.9665 43.0705C39.8092 38.4404 35.7972 34.9948 31 34.9948C26.2002 34.9948 22.1908 38.4404 21.0361 43.0705H40.9665ZM51.0932 21.0157L43.6506 28.7711C45.0146 29.8775 46.2417 31.1561 47.3034 32.5774L54.746 24.8221L51.0932 21.0157ZM62 53.8381H0V59.2219H62V53.8381Z" fill="#676DF4"/>
</svg>
