<svg width="175" height="111" viewBox="0 0 175 111" fill="none" xmlns="http://www.w3.org/2000/svg">
<path d="M148.91 52.1423C147.613 29.7133 126.809 12.0574 102.01 14.0415C94.0844 5.44594 82.374 0 69.2708 0C46.1417 0 27.3146 16.9483 26.0896 38.2672C11.2656 40.7578 0 52.8707 0 67.4464C0 83.8327 14.2115 97.125 31.7479 97.125H41.4167C47.0385 105.436 56.9042 111 68.2063 111H143.245C160.789 111 175 97.7077 175 81.3214C175 66.7457 163.734 54.6328 148.91 52.1423ZM36.6552 83.25H31.7479C22.2906 83.25 14.5833 76.1599 14.5833 67.4464C14.5833 52.7528 29.925 49.4297 40.0167 50.0194C39.6521 40.6121 41.0156 13.875 69.2708 13.875C76.3219 13.875 81.7688 15.6094 85.9688 18.3427C72.676 24.7391 63.3937 37.3931 62.5479 52.1423C47.8042 54.6259 35.5906 66.8983 36.6552 83.25Z" fill="url(#paint0_linear)"/>
<defs>
<linearGradient id="paint0_linear" x1="87.5" y1="0" x2="87.5" y2="111" gradientUnits="userSpaceOnUse">
<stop stop-color="#8F8DE2"/>
<stop offset="0.0001" stop-color="#A4A3ED" stop-opacity="0.854167"/>
<stop offset="0.9997" stop-color="#6462D0"/>
<stop offset="0.9998" stop-color="#8C8BDE"/>
</linearGradient>
</defs>
</svg>
